<svg xmlns="http://www.w3.org/2000/svg" viewBox="0 0 64 64">
  <!-- Steam -->
  <path d="M22 20 Q24 14 22 8" stroke="#CBD5E1" stroke-width="1.5" fill="none" stroke-linecap="round"/>
  <path d="M32 18 Q34 12 32 6" stroke="#CBD5E1" stroke-width="1.5" fill="none" stroke-linecap="round"/>
  <path d="M42 20 Q44 14 42 8" stroke="#CBD5E1" stroke-width="1.5" fill="none" stroke-linecap="round"/>
  <!-- Chopsticks -->
  <line x1="40" y1="10" x2="27" y2="34" stroke="#78350F" stroke-width="2.5" stroke-linecap="round"/>
  <line x1="46" y1="10" x2="33" y2="34" stroke="#92400E" stroke-width="2.5" stroke-linecap="round"/>
  <!-- Bowl -->
  <path d="M8 34 C8 34 10 54 32 54 C54 54 56 34 56 34 Z" fill="#EA580C"/>
  <ellipse cx="32" cy="34" rx="24" ry="7" fill="#F97316"/>
  <!-- Noodles -->
  <path d="M18 32 Q20 24 24 30 Q28 36 26 28 Q24 20 28 26" stroke="#FDE68A" stroke-width="2.5" fill="none" stroke-linecap="round"/>
  <path d="M30 30 Q32 22 36 28 Q40 34 38 26" stroke="#FDE68A" stroke-width="2.5" fill="none" stroke-linecap="round"/>
  <path d="M38 32 Q40 26 42 30" stroke="#FDE68A" stroke-width="2" fill="none" stroke-linecap="round"/>
</svg>
